<?xml version="1.0" encoding="UTF-8" standalone="no"?>
<!-- Created with Inkscape (http://www.inkscape.org/) -->

<svg
   width="1000"
   height="600"
   viewBox="0 0 264.58333 158.75"
   version="1.1"
   id="svg1"
   inkscape:version="1.3 (0e150ed6c4, 2023-07-21)"
   sodipodi:docname="tfv.svg"
   inkscape:export-filename="tfv.png"
   inkscape:export-xdpi="96"
   inkscape:export-ydpi="96"
   xmlns:inkscape="http://www.inkscape.org/namespaces/inkscape"
   xmlns:sodipodi="http://sodipodi.sourceforge.net/DTD/sodipodi-0.dtd"
   xmlns:xlink="http://www.w3.org/1999/xlink"
   xmlns="http://www.w3.org/2000/svg"
   xmlns:svg="http://www.w3.org/2000/svg">
  <sodipodi:namedview
     id="namedview1"
     pagecolor="#505050"
     bordercolor="#eeeeee"
     borderopacity="1"
     inkscape:showpageshadow="0"
     inkscape:pageopacity="0"
     inkscape:pagecheckerboard="0"
     inkscape:deskcolor="#505050"
     inkscape:document-units="mm"
     showgrid="false"
     showguides="true"
     inkscape:zoom="1.4142136"
     inkscape:cx="428.50671"
     inkscape:cy="321.38003"
     inkscape:window-width="1920"
     inkscape:window-height="1017"
     inkscape:window-x="-8"
     inkscape:window-y="-8"
     inkscape:window-maximized="1"
     inkscape:current-layer="layer2">
    <inkscape:grid
       id="grid1"
       units="mm"
       originx="0"
       originy="0"
       spacingx="0.99999999"
       spacingy="1"
       empcolor="#0099e5"
       empopacity="0.30196078"
       color="#0099e5"
       opacity="0.14901961"
       empspacing="5"
       dotted="false"
       gridanglex="30"
       gridanglez="30"
       visible="false" />
  </sodipodi:namedview>
  <defs
     id="defs1">
    <linearGradient
       id="linearGradient148"
       inkscape:collect="always">
      <stop
         style="stop-color:#31113f;stop-opacity:0;"
         offset="0"
         id="stop149" />
      <stop
         style="stop-color:#7d25ac;stop-opacity:0.30981594;"
         offset="1"
         id="stop148" />
    </linearGradient>
    <linearGradient
       id="linearGradient144"
       inkscape:collect="always">
      <stop
         style="stop-color:#6f2a92;stop-opacity:0.35889575;"
         offset="0"
         id="stop144" />
      <stop
         style="stop-color:#210b2d;stop-opacity:0;"
         offset="1"
         id="stop145" />
    </linearGradient>
    <linearGradient
       id="linearGradient106"
       inkscape:collect="always">
      <stop
         style="stop-color:#600080;stop-opacity:0.63681605;"
         offset="0"
         id="stop106" />
      <stop
         style="stop-color:#600080;stop-opacity:0;"
         offset="1"
         id="stop107" />
    </linearGradient>
    <linearGradient
       id="linearGradient103"
       inkscape:collect="always">
      <stop
         style="stop-color:#600080;stop-opacity:0.40184048;"
         offset="0"
         id="stop104" />
      <stop
         style="stop-color:#600080;stop-opacity:0;"
         offset="1"
         id="stop105" />
    </linearGradient>
    <linearGradient
       id="swatch99"
       inkscape:swatch="solid">
      <stop
         style="stop-color:#600080;stop-opacity:0.63681593;"
         offset="0"
         id="stop99" />
    </linearGradient>
    <linearGradient
       id="linearGradient90"
       inkscape:collect="always">
      <stop
         style="stop-color:#600080;stop-opacity:0.58457701;"
         offset="0"
         id="stop90" />
      <stop
         style="stop-color:#600080;stop-opacity:0;"
         offset="1"
         id="stop91" />
    </linearGradient>
    <linearGradient
       id="linearGradient89"
       inkscape:collect="always">
      <stop
         style="stop-color:#000000;stop-opacity:0;"
         offset="0"
         id="stop89" />
      <stop
         style="stop-color:#303030;stop-opacity:1;"
         offset="1"
         id="stop88" />
    </linearGradient>
    <linearGradient
       id="linearGradient54"
       inkscape:collect="always">
      <stop
         style="stop-color:#303030;stop-opacity:1;"
         offset="0"
         id="stop54" />
      <stop
         style="stop-color:#000000;stop-opacity:0;"
         offset="1"
         id="stop55" />
    </linearGradient>
    <clipPath
       clipPathUnits="userSpaceOnUse"
       id="clipPath25">
      <rect
         style="fill:#ff0000;stroke:none;stroke-width:3;stroke-linecap:square;stroke-linejoin:miter;paint-order:stroke markers fill;stop-color:#000000"
         id="rect25-8"
         width="78"
         height="45.033199"
         x="763.61322"
         y="452.82422" />
    </clipPath>
    <linearGradient
       inkscape:collect="always"
       xlink:href="#linearGradient54"
       id="linearGradient55"
       x1="119.99999"
       y1="55"
       x2="135"
       y2="55"
       gradientUnits="userSpaceOnUse" />
    <linearGradient
       inkscape:collect="always"
       xlink:href="#linearGradient89"
       id="linearGradient56"
       gradientUnits="userSpaceOnUse"
       x1="119.99999"
       y1="55"
       x2="135"
       y2="55"
       gradientTransform="translate(7.1646446e-5,1.6634406e-4)" />
    <linearGradient
       inkscape:collect="always"
       xlink:href="#linearGradient90"
       id="linearGradient91"
       x1="99.246346"
       y1="55.739345"
       x2="109.24635"
       y2="55.739345"
       gradientUnits="userSpaceOnUse"
       gradientTransform="matrix(1,0,-0.02258959,0.85316774,1.9224018,12.495607)" />
    <linearGradient
       inkscape:collect="always"
       xlink:href="#linearGradient103"
       id="linearGradient105"
       x1="75.078743"
       y1="30.944649"
       x2="135.21191"
       y2="30.944649"
       gradientUnits="userSpaceOnUse" />
    <linearGradient
       inkscape:collect="always"
       xlink:href="#linearGradient106"
       id="linearGradient107"
       x1="86.406798"
       y1="50.924994"
       x2="96.406797"
       y2="50.924994"
       gradientUnits="userSpaceOnUse" />
    <linearGradient
       inkscape:collect="always"
       xlink:href="#linearGradient54"
       id="linearGradient122"
       gradientUnits="userSpaceOnUse"
       x1="119.99999"
       y1="55"
       x2="135"
       y2="55" />
    <linearGradient
       inkscape:collect="always"
       xlink:href="#linearGradient144"
       id="linearGradient145"
       x1="198"
       y1="116"
       x2="221"
       y2="116"
       gradientUnits="userSpaceOnUse"
       gradientTransform="translate(1.2127184e-5)" />
    <linearGradient
       inkscape:collect="always"
       xlink:href="#linearGradient148"
       id="linearGradient149"
       x1="172.64708"
       y1="120.03381"
       x2="189"
       y2="120.03381"
       gradientUnits="userSpaceOnUse" />
  </defs>
  <g
     inkscape:label="Capa 1"
     inkscape:groupmode="layer"
     id="layer1"
     style="display:none;fill:#b300e4;fill-opacity:1;fill-rule:evenodd;stroke:none;stroke-opacity:1"
     transform="matrix(1,0,-0.1538462,1,8.8461563,0)">
    <g
       id="g8"
       style="fill:#000000;fill-opacity:1;fill-rule:evenodd;stroke:none;stroke-opacity:1"
       transform="matrix(1,0,0.00520667,1.0338434,-72.570165,-21.683762)"
       inkscape:label="g8"
       inkscape:groupmode="layer">
      <g
         id="g7"
         style="fill:#000000;fill-opacity:1;fill-rule:evenodd;stroke:none;stroke-opacity:1">
        <rect
           style="fill:#000000;fill-opacity:1;fill-rule:evenodd;stroke:none;stroke-width:0.170971;stroke-opacity:1"
           id="rect1"
           width="10.000001"
           height="50.106903"
           x="100.5265"
           y="35.00396"
           transform="matrix(1,0,-0.01504097,0.99988688,0,0)" />
        <rect
           style="fill:#000000;fill-opacity:1;fill-rule:evenodd;stroke:none;stroke-width:0.212467;stroke-opacity:1"
           id="rect2"
           width="60"
           height="9.1353598"
           x="75.510269"
           y="25.868359"
           transform="matrix(1,0,-0.01457752,0.99989374,0,0)" />
      </g>
      <rect
         style="fill:#000000;fill-opacity:1;fill-rule:evenodd;stroke:none;stroke-width:0.187088;stroke-opacity:1"
         id="rect3"
         width="9.9999971"
         height="3.7242908"
         x="90"
         y="50" />
      <g
         id="g6"
         transform="matrix(1,0,0,0.83333333,-4.9999986,6.6666667)"
         style="fill:#000000;fill-opacity:1;fill-rule:evenodd;stroke:none;stroke-opacity:1">
        <rect
           style="fill:#000000;fill-opacity:1;fill-rule:evenodd;stroke:none;stroke-width:0.223614;stroke-opacity:1"
           id="rect4"
           width="5"
           height="25"
           x="119.99999"
           y="45"
           inkscape:label="rect4" />
        <rect
           style="fill:#000000;fill-opacity:1;fill-rule:evenodd;stroke:none;stroke-width:0.204945;stroke-opacity:1"
           id="rect5"
           width="15.000002"
           height="5"
           x="120"
           y="40"
           ry="0" />
      </g>
      <rect
         style="fill:#d3bddf;fill-opacity:1;fill-rule:evenodd;stroke:none;stroke-width:0.261743;stroke-linecap:round;stroke-linejoin:bevel;stroke-dasharray:none;stroke-dashoffset:0;stroke-opacity:1;paint-order:stroke fill markers"
         id="rect122"
         width="9.2087526"
         height="45.310806"
         x="184.96199"
         y="33.987827"
         transform="matrix(1,0,0.15205724,0.98837169,0,0)" />
      <rect
         style="fill:#d3bddf;fill-opacity:1;fill-rule:evenodd;stroke:none;stroke-width:0.261743;stroke-linecap:round;stroke-linejoin:bevel;stroke-dasharray:none;stroke-dashoffset:0;stroke-opacity:1;paint-order:stroke fill markers"
         id="rect123"
         width="61.64748"
         height="6.7016811"
         x="159.63792"
         y="30.79085"
         transform="matrix(1,0,0.15205724,0.98837169,0,0)" />
      <rect
         style="fill:#d3bddf;fill-opacity:1;fill-rule:evenodd;stroke:none;stroke-width:0.261743;stroke-linecap:round;stroke-linejoin:bevel;stroke-dasharray:none;stroke-dashoffset:0;stroke-opacity:1;paint-order:stroke fill markers"
         id="rect124"
         width="9.2087526"
         height="6.0549746"
         x="200.05411"
         y="50.588257"
         transform="matrix(1,0,0.15205724,0.98837169,0,0)" />
      <path
         style="fill:#d3bddf;fill-opacity:1;fill-rule:evenodd;stroke:none;stroke-width:0.260217;stroke-linecap:round;stroke-linejoin:bevel;stroke-dasharray:none;stroke-dashoffset:0;stroke-opacity:1;paint-order:stroke fill markers"
         d="M 206.22868,78.376522 171.73986,42.083333 h -4.09278 l 29.37284,36.293189 z"
         id="path124" />
      <path
         style="fill:#d3bddf;fill-opacity:1;fill-rule:evenodd;stroke:none;stroke-width:0.260217;stroke-linecap:round;stroke-linejoin:bevel;stroke-dasharray:none;stroke-dashoffset:0;stroke-opacity:1;paint-order:stroke fill markers"
         d="m 225.96737,30.432804 -5.67435,41.263249 -3.33785,-21.696052 3.89624,-19.567197 z"
         id="path126" />
      <path
         style="fill:#d3bddf;fill-opacity:1;fill-rule:evenodd;stroke:none;stroke-width:0.260217;stroke-linecap:round;stroke-linejoin:bevel;stroke-dasharray:none;stroke-dashoffset:0;stroke-opacity:1;paint-order:stroke fill markers"
         d="m 226.98641,37.056556 -6.69339,34.639497 0.55839,-41.263249 z"
         id="path127" />
      <path
         style="fill:#d3bddf;fill-opacity:1;fill-rule:evenodd;stroke:none;stroke-width:0.260217;stroke-linecap:round;stroke-linejoin:bevel;stroke-dasharray:none;stroke-dashoffset:0;stroke-opacity:1;paint-order:stroke fill markers"
         d="m 225.96737,30.432804 v 0 l 1.01904,6.623752 5.88754,-6.623752 z"
         id="path129" />
      <path
         style="fill:#d3bddf;fill-opacity:1;fill-rule:evenodd;stroke:none;stroke-width:0.260217;stroke-linecap:round;stroke-linejoin:bevel;stroke-dasharray:none;stroke-dashoffset:0;stroke-opacity:1;paint-order:stroke fill markers"
         d="m 197.01992,78.376522 9.62099,12.371254 13.65211,-19.051723 h -15.09211 z"
         id="path130" />
    </g>
    <g
       id="g48"
       style="fill:#000000;fill-opacity:1;fill-rule:evenodd;stroke:none;stroke-opacity:1"
       transform="matrix(1,0,0.00520667,1.0338434,-66.027195,53.345497)"
       inkscape:label="logo dark"
       inkscape:groupmode="layer">
      <g
         id="g44"
         style="fill:#000000;fill-opacity:1;fill-rule:evenodd;stroke:none;stroke-opacity:1">
        <g
           id="g47"
           transform="matrix(0.96426153,0.59454505,-0.51487016,0.60510565,24.754576,-31.574286)"
           style="fill:url(#linearGradient55);fill-opacity:1;fill-rule:evenodd;stroke:none;stroke-opacity:1">
          <rect
             style="fill:url(#linearGradient122);fill-opacity:1;fill-rule:nonzero;stroke:none;stroke-width:0.223614;stroke-linecap:round;stroke-linejoin:bevel;stroke-dasharray:none;stroke-dashoffset:0;stroke-opacity:1;paint-order:stroke fill markers"
             id="rect46"
             width="5"
             height="25"
             x="119.99999"
             y="45"
             inkscape:label="rect4" />
          <rect
             style="fill:url(#linearGradient56);fill-opacity:1;fill-rule:nonzero;stroke:none;stroke-width:0.204945;stroke-linecap:round;stroke-linejoin:bevel;stroke-dasharray:none;stroke-dashoffset:0;stroke-opacity:1;paint-order:stroke fill markers"
             id="rect47"
             width="14.999996"
             height="4.9999962"
             x="120.00003"
             y="40.000137"
             ry="0" />
        </g>
        <rect
           style="fill:#000000;fill-opacity:1;fill-rule:evenodd;stroke:none;stroke-width:0.170971;stroke-opacity:1"
           id="rect43"
           width="10.000001"
           height="50.106903"
           x="100.5265"
           y="35.00396"
           transform="matrix(1,0,-0.01504097,0.99988688,0,0)" />
        <rect
           style="fill:#000000;fill-opacity:1;fill-rule:evenodd;stroke:none;stroke-width:0.212467;stroke-opacity:1"
           id="rect44"
           width="60"
           height="9.1353598"
           x="75.596474"
           y="26.380257"
           transform="matrix(1,0,-0.01457752,0.99989374,0,0)"
           ry="0" />
      </g>
      <rect
         style="display:inline;fill:#000000;fill-opacity:1;fill-rule:evenodd;stroke:none;stroke-width:0.226295;stroke-opacity:1"
         id="rect45"
         width="9.9999971"
         height="5.448792"
         x="83.801353"
         y="48.260624"
         transform="matrix(1,0,0.04851002,0.9988227,0,0)" />
      <path
         style="fill:url(#linearGradient91);fill-rule:nonzero;stroke:none;stroke-width:0.240355;stroke-linecap:round;stroke-linejoin:bevel;stroke-dasharray:none;stroke-dashoffset:0;stroke-opacity:1;paint-order:stroke fill markers"
         d="M 106.53846,34.999999 99.246346,85.101236 H 109.24635 Z"
         id="path89" />
      <path
         style="fill:url(#linearGradient105);fill-opacity:1;fill-rule:nonzero;stroke:none;stroke-width:0.260217;stroke-linecap:round;stroke-linejoin:bevel;stroke-dasharray:none;stroke-dashoffset:0;stroke-opacity:1;paint-order:stroke fill markers"
         d="m 75.078744,35.511843 60.133166,-9.13439 H 75.211915 Z"
         id="path91" />
      <path
         style="fill:url(#linearGradient107);fill-opacity:0.636816;fill-rule:nonzero;stroke:none;stroke-width:0.260217;stroke-linecap:round;stroke-linejoin:bevel;stroke-dasharray:none;stroke-dashoffset:0;stroke-opacity:1;paint-order:stroke fill markers"
         d="m 86.406798,53.646183 9.735678,-5.442377 0.264321,5.442377 z"
         id="path105" />
    </g>
    <path
       sodipodi:type="star"
       style="display:none;fill:#000000;fill-opacity:1;fill-rule:evenodd;stroke:none;stroke-width:0.260217;stroke-linecap:round;stroke-linejoin:bevel;stroke-dasharray:none;stroke-dashoffset:0;stroke-opacity:1;paint-order:stroke fill markers"
       id="path133"
       inkscape:flatsided="true"
       sodipodi:sides="3"
       sodipodi:cx="608.11597"
       sodipodi:cy="304.68909"
       sodipodi:r1="208.68073"
       sodipodi:r2="104.34037"
       sodipodi:arg1="1.5707963"
       sodipodi:arg2="2.6179939"
       inkscape:rounded="0"
       inkscape:randomized="0"
       d="m 608.11597,513.36981 -180.72282,-313.02108 361.44562,-1e-5 z"
       transform="matrix(0.26458333,0,0.04070514,0.26458333,36.561694,15.580985)"
       inkscape:transform-center-x="1.5506161e-06"
       inkscape:transform-center-y="13.803361" />
    <path
       style="display:none;fill:#afafaf;fill-opacity:1;fill-rule:evenodd;stroke:none;stroke-width:0.264583;stroke-linecap:round;stroke-linejoin:bevel;stroke-dasharray:none;stroke-dashoffset:0;stroke-opacity:1;paint-order:stroke fill markers"
       d="m 249.10713,71.367831 h -86.07626 l 45.05009,59.217389 c -12.72116,-38.372616 3.91342,-2.80405 -18.89009,-32.136049 7.28172,-1.652596 9.37113,2.262059 7.13359,-3.894173 l -9.37641,0.09051 -13.49858,-17.393379 c 3.72363,-3.98313 20.29215,0.23574 27.79219,3.071143 l 12.68883,58.621958 4.94788,-0.0107 c 7.14703,-19.14818 15.20222,-34.11526 22.47527,-52.89329 -6.72187,8.31675 -1.66963,-0.271315 -8.22201,0.368182 C 229.83379,110 224.56438,123.2519 217.19332,129.18638 l -7.118,-49.81138 c 7.52789,-0.83306 27.25299,-5.384453 28.68184,4.763481 0,0 8.03723,-8.798218 10.34997,-12.77065 z"
       id="path134"
       sodipodi:nodetypes="cccccccccccccccc" />
  </g>
  <g
     inkscape:groupmode="layer"
     id="layer2"
     inkscape:label="Capa 2"
     transform="matrix(1.6771133,0,0,1.4097209,-189.0455,-58.140479)"
     style="display:inline;opacity:1;mix-blend-mode:normal"
     sodipodi:insensitive="true">
    <path
       id="path133-4"
       style="display:none;fill:#ffffff;fill-opacity:1;fill-rule:evenodd;stroke:none;stroke-width:0.0739002;stroke-linecap:round;stroke-linejoin:bevel;stroke-dasharray:none;stroke-dashoffset:0;stroke-opacity:1;paint-order:stroke fill markers"
       inkscape:transform-center-y="14.816044"
       d="M 142.54197,60.069724 193.8662,148.9661 245.19044,60.069724 Z"
       inkscape:transform-center-x="-2.9041137e-06" />
    <path
       id="path150"
       style="display:inline;fill:#1e0a29;fill-opacity:1;fill-rule:evenodd;stroke:none;stroke-width:0.260217;stroke-linecap:round;stroke-linejoin:bevel;stroke-dasharray:none;stroke-dashoffset:0;stroke-opacity:1;paint-order:stroke fill markers"
       inkscape:transform-center-x="1.5506161e-06"
       inkscape:transform-center-y="13.803361"
       d="M 427.39315,200.34872 608.11581,513.37021 788.83846,200.34872 Z"
       transform="matrix(0.26458333,0,0,0.26458333,32.968898,13.1369)" />
    <path
       style="display:inline;fill:#ffffff;fill-opacity:1;fill-rule:evenodd;stroke:none;stroke-width:0.264583;stroke-linecap:round;stroke-linejoin:bevel;stroke-dasharray:none;stroke-dashoffset:0;stroke-opacity:1;paint-order:stroke fill markers"
       d="m 150.82811,68.554043 h 86.07626 L 230.45145,79.375 h -6.34675 -6.45678 -18.78049 l 0.14985,39.51554 15.40021,-25.955077 h 7.52395 L 195.73241,136.9006 h -7.28457 L 188.66462,79.375 H 164.4884 L 172,92 h 9 v 3 h -7 l 7.93076,15.18622 L 188,122 v 10 l -3,-5 z"
       id="path141"
       sodipodi:nodetypes="cccccccccccccccccccccc"
       inkscape:label="path141" />
    <rect
       style="display:inline;fill:#210b2d;fill-opacity:1;fill-rule:evenodd;stroke:none;stroke-width:0.371657;stroke-linecap:round;stroke-linejoin:bevel;stroke-dasharray:none;stroke-dashoffset:0;stroke-opacity:1;paint-order:stroke fill markers"
       id="rect143"
       width="84"
       height="4.4725189"
       x="152"
       y="71.058334" />
    <rect
       style="display:inline;fill:#1d0a27;fill-opacity:1;fill-rule:evenodd;stroke:none;stroke-width:0.420495;stroke-linecap:round;stroke-linejoin:bevel;stroke-dasharray:none;stroke-dashoffset:0;stroke-opacity:1;paint-order:stroke fill markers"
       id="rect144"
       width="3.7324066"
       height="67.017593"
       x="192"
       y="72.135231" />
    <path
       style="display:inline;fill:url(#linearGradient145);fill-rule:evenodd;stroke:none;stroke-width:0.264583;stroke-linecap:round;stroke-linejoin:bevel;stroke-dasharray:none;stroke-dashoffset:0;stroke-opacity:1;paint-order:stroke fill markers"
       d="M 199.01728,118.89054 V 132 l 22.92416,-39.064537 h -7.52395 z"
       id="path144"
       sodipodi:nodetypes="ccccc" />
    <path
       style="display:inline;fill:url(#linearGradient149);fill-rule:evenodd;stroke:none;stroke-width:0.264583;stroke-linecap:round;stroke-linejoin:bevel;stroke-dasharray:none;stroke-dashoffset:0;stroke-opacity:1;paint-order:stroke fill markers"
       d="M 188,132 172.64708,106.06762 174,95 l 14,27 z"
       id="path145"
       sodipodi:nodetypes="ccccc" />
    <path
       style="display:none;fill:#000000;fill-opacity:1;fill-rule:evenodd;stroke:none;stroke-width:0.264696;stroke-linecap:round;stroke-linejoin:bevel;stroke-dasharray:none;stroke-dashoffset:0;stroke-opacity:1;paint-order:stroke fill markers"
       d="m 155.84534,75 h 3.38933 c 9.74356,16.909162 18.72369,33.26395 28.76533,50 v 4 z"
       id="path149"
       sodipodi:nodetypes="ccccc" />
    <path
       style="font-size:8.60393px;line-height:1.3;font-family:'Microsoft Yi Baiti';-inkscape-font-specification:'Microsoft Yi Baiti';letter-spacing:0.00344157px;display:none;fill:#7b2aa7;fill-rule:evenodd;stroke-width:0.172079;stroke-linecap:round;stroke-linejoin:bevel;paint-order:stroke fill markers"
       d="m 149.45696,61.087884 h -1.47516 v 4.651142 h -0.30813 v -4.651142 h -1.45975 v -0.366592 h 3.24304 z m 4.0974,4.651142 h -0.36976 l -0.51611,-1.613008 h -2.076 q -0.1117,0.380341 -0.24266,0.806505 -0.13095,0.42158 -0.25035,0.806503 h -0.32739 q 0.20799,-0.650702 0.40827,-1.273909 0.20413,-0.623207 0.40442,-1.23725 0.20028,-0.618624 0.40056,-1.241831 0.20414,-0.623208 0.41212,-1.269327 h 0.43524 z m -0.97446,-1.901698 -0.9783,-2.790685 -0.92823,2.790685 z m 5.56101,1.901698 h -0.30812 v -4.417439 l -1.51753,4.417439 h -0.32354 l -1.51368,-4.417439 v 4.417439 h -0.30813 v -5.017734 h 0.4468 l 1.53678,4.559493 1.54834,-4.559493 h 0.43908 z m 4.40553,0 h -0.36976 l -0.51611,-1.613008 h -2.07601 q -0.1117,0.380341 -0.24265,0.806505 -0.13096,0.42158 -0.25035,0.806503 h -0.32739 q 0.20798,-0.650702 0.40827,-1.273909 0.20413,-0.623207 0.40442,-1.23725 0.20028,-0.618624 0.40056,-1.241831 0.20414,-0.623208 0.41212,-1.269327 h 0.43523 z m -0.97446,-1.901698 -0.9783,-2.790685 -0.92823,2.790685 z m 5.01794,1.901698 h -0.33895 l -0.41982,-1.33348 q -0.0616,-0.192461 -0.13866,-0.36201 -0.0732,-0.169549 -0.17332,-0.293274 -0.10014,-0.128308 -0.2311,-0.201626 -0.1271,-0.07332 -0.30042,-0.07332 h -1.47516 v 2.263709 h -0.30813 V 60.72129 h 1.89884 q 0.26575,0 0.51226,0.05958 0.25035,0.05498 0.44293,0.201625 0.19644,0.146637 0.31198,0.407834 0.11555,0.256615 0.11555,0.659867 0,0.252031 -0.0539,0.471987 -0.0501,0.215374 -0.15792,0.389505 -0.10399,0.169549 -0.26961,0.293274 -0.16177,0.119142 -0.38131,0.174131 0.1194,0.109978 0.19644,0.21079 0.077,0.100808 0.13095,0.215374 0.0578,0.11456 0.10014,0.252032 0.0462,0.137472 0.10399,0.316186 z m -3.07743,-2.630301 h 1.46361 q 0.31197,0 0.53537,-0.05499 0.22339,-0.05498 0.36589,-0.178713 0.14637,-0.128308 0.2157,-0.329933 0.0693,-0.201626 0.0693,-0.4949 0,-0.517813 -0.27731,-0.737767 -0.27347,-0.224539 -0.8204,-0.224539 h -1.55218 z m 7.35585,2.630301 h -0.36976 l -0.51611,-1.613008 h -2.07601 q -0.1117,0.380341 -0.24265,0.806505 -0.13096,0.42158 -0.25035,0.806503 h -0.32739 q 0.20798,-0.650702 0.40827,-1.273909 0.20413,-0.623207 0.40442,-1.23725 0.20028,-0.618624 0.40056,-1.241831 0.20414,-0.623208 0.41212,-1.269327 h 0.43523 z m -0.97446,-1.901698 -0.9783,-2.790685 -0.92823,2.790685 z m 7.8443,-2.749444 h -2.42265 v 1.883369 h 2.10683 v 0.366593 h -2.10683 v 2.40118 h -0.30813 v -5.017734 h 2.73078 z m 3.97415,4.651142 h -3.04661 v -5.017734 h 2.94261 v 0.366592 h -2.63449 v 1.855875 h 2.46887 v 0.366592 h -2.46887 v 2.062082 h 2.73849 z m 4.3285,0 h -0.33894 l -0.41983,-1.33348 q -0.0616,-0.192461 -0.13866,-0.36201 -0.0732,-0.169549 -0.17332,-0.293274 -0.10014,-0.128308 -0.23109,-0.201626 -0.12711,-0.07332 -0.30043,-0.07332 h -1.47515 v 2.263709 h -0.30813 V 60.72129 h 1.89883 q 0.26576,0 0.51227,0.05958 0.25035,0.05498 0.44293,0.201625 0.19643,0.146637 0.31197,0.407834 0.11555,0.256615 0.11555,0.659867 0,0.252031 -0.0539,0.471987 -0.0501,0.215374 -0.15792,0.389505 -0.10399,0.169549 -0.26961,0.293274 -0.16177,0.119142 -0.3813,0.174131 0.11939,0.109978 0.19643,0.21079 0.077,0.100808 0.13095,0.215374 0.0578,0.11456 0.10015,0.252032 0.0462,0.137472 0.10399,0.316186 z m -3.07742,-2.630301 h 1.4636 q 0.31198,0 0.53537,-0.05499 0.22339,-0.05498 0.3659,-0.178713 0.14636,-0.128308 0.21569,-0.329933 0.0693,-0.201626 0.0693,-0.4949 0,-0.517813 -0.27731,-0.737767 -0.27346,-0.224539 -0.8204,-0.224539 h -1.55218 z m 7.2711,2.630301 h -0.40442 l -2.57286,-4.582406 v 4.582406 h -0.30813 v -5.017734 h 0.42368 l 2.5536,4.57324 v -4.57324 h 0.30813 z m 4.40938,0 h -0.36975 l -0.51612,-1.613008 h -2.07601 q -0.11169,0.380341 -0.24265,0.806505 -0.13095,0.42158 -0.25035,0.806503 h -0.32738 q 0.20798,-0.650702 0.40826,-1.273909 0.20414,-0.623207 0.40442,-1.23725 0.20029,-0.618624 0.40057,-1.241831 0.20413,-0.623208 0.41212,-1.269327 h 0.43523 z m -0.97445,-1.901698 -0.97831,-2.790685 -0.92823,2.790685 z m 4.88697,1.901698 H 198.152 l -2.57286,-4.582406 v 4.582406 H 195.271 v -5.017734 h 0.42368 l 2.5536,4.57324 v -4.57324 h 0.30813 z m 4.47486,-2.547818 q 0,2.547818 -2.12993,2.547818 h -1.27488 v -5.013152 h 1.27488 q 1.06688,0 1.59841,0.614042 0.53152,0.60946 0.53152,1.851292 z m -0.32739,0 q 0,-0.4949 -0.0847,-0.884404 -0.0809,-0.389504 -0.28887,-0.659866 -0.20798,-0.274945 -0.55848,-0.417 -0.34664,-0.142054 -0.87816,-0.142054 h -0.95905 v 4.284549 h 0.95905 q 0.52767,0 0.87431,-0.146637 0.3505,-0.146637 0.55848,-0.426163 0.20799,-0.28411 0.29272,-0.687361 0.0847,-0.403252 0.0847,-0.921064 z m 4.30153,2.547818 h -3.04661 v -5.017734 h 2.94262 v 0.366592 h -2.63449 v 1.855875 h 2.46887 v 0.366592 h -2.46887 v 2.062082 h 2.73848 z m 3.82395,0 h -3.24305 V 65.25329 l 2.84633,-4.165406 h -2.59598 v -0.366592 h 2.91181 v 0.490317 l -2.85018,4.160824 h 2.93107 z m 7.54772,-5.017734 -1.65233,5.017734 h -0.39672 l -1.65233,-5.017734 h 0.34279 l 1.50983,4.559493 1.50982,-4.559493 z m 1.14322,5.017734 h -0.30812 v -5.017734 h 0.30812 z m 4.12822,-4.651142 h -1.47516 v 4.651142 h -0.30813 v -4.651142 h -1.45975 v -0.366592 h 3.24304 z m 2.37189,4.74279 q -0.37746,0 -0.64707,-0.09164 -0.26576,-0.09623 -0.44293,-0.256615 -0.17718,-0.160384 -0.28117,-0.375757 -0.104,-0.215374 -0.15791,-0.458241 -0.0539,-0.242867 -0.0693,-0.504064 -0.0116,-0.261197 -0.0116,-0.508647 V 60.7213 h 0.30813 v 2.900662 q 0,0.572801 0.0847,0.934811 0.0886,0.357428 0.2542,0.559054 0.16947,0.201625 0.40827,0.274944 0.24266,0.07332 0.55464,0.07332 0.31582,0 0.55847,-0.07332 0.24651,-0.07332 0.40827,-0.274944 0.16562,-0.206208 0.25036,-0.563636 0.0847,-0.357428 0.0847,-0.930229 V 60.7213 h 0.30813 v 2.91441 q 0,0.517811 -0.0732,0.925645 -0.0732,0.407835 -0.2542,0.691944 -0.18103,0.279527 -0.49301,0.430746 -0.31198,0.146637 -0.78957,0.146637 z m 6.09637,-0.09164 h -0.33894 l -0.41983,-1.33348 q -0.0616,-0.192461 -0.13866,-0.36201 -0.0732,-0.169549 -0.17332,-0.293274 -0.10014,-0.128308 -0.23109,-0.201626 -0.1271,-0.07332 -0.30042,-0.07332 h -1.47516 v 2.263708 h -0.30813 v -5.017734 h 1.89884 q 0.26576,0 0.51226,0.05958 0.25035,0.05499 0.44293,0.201626 0.19643,0.146636 0.31198,0.407833 0.11555,0.256615 0.11555,0.659867 0,0.252032 -0.0539,0.471987 -0.0501,0.215374 -0.15791,0.389505 -0.104,0.169549 -0.26961,0.293274 -0.16177,0.119142 -0.38131,0.174131 0.1194,0.109978 0.19643,0.210791 0.077,0.100807 0.13095,0.215373 0.0578,0.11456 0.10015,0.252032 0.0462,0.137472 0.10399,0.316187 z m -3.07742,-2.630301 h 1.4636 q 0.31198,0 0.53537,-0.05498 0.2234,-0.05499 0.36591,-0.178714 0.14635,-0.128307 0.21568,-0.329933 0.0693,-0.201626 0.0693,-0.4949 0,-0.517812 -0.27731,-0.737767 -0.27346,-0.224538 -0.82039,-0.224538 h -1.55219 z m 7.40206,2.630301 h -0.33894 l -0.41982,-1.33348 q -0.0616,-0.192461 -0.13866,-0.36201 -0.0732,-0.169549 -0.17332,-0.293274 -0.10014,-0.128308 -0.2311,-0.201626 -0.1271,-0.07332 -0.30042,-0.07332 H 233.364 v 2.263708 h -0.30813 v -5.017734 h 1.89884 q 0.26576,0 0.51226,0.05958 0.25035,0.05499 0.44293,0.201626 0.19643,0.146636 0.31198,0.407833 0.11555,0.256615 0.11555,0.659867 0,0.252032 -0.0539,0.471987 -0.05,0.215374 -0.15791,0.389505 -0.104,0.169549 -0.26962,0.293274 -0.16176,0.119142 -0.3813,0.174131 0.1194,0.109978 0.19643,0.210791 0.077,0.100807 0.13096,0.215373 0.0578,0.11456 0.10014,0.252032 0.0462,0.137472 0.10399,0.316187 z M 233.364,63.108728 h 1.4636 q 0.31198,0 0.53538,-0.05498 0.22338,-0.05499 0.3659,-0.178714 0.14636,-0.128307 0.21569,-0.329933 0.0693,-0.201626 0.0693,-0.4949 0,-0.517812 -0.27732,-0.737767 -0.27346,-0.224538 -0.82038,-0.224538 h -1.5522 z m 5.80365,-2.479081 q 0.43138,0 0.79728,0.183296 0.3659,0.183296 0.62781,0.522394 0.26576,0.339099 0.41212,0.815668 0.15021,0.47657 0.15021,1.063119 0,0.581964 -0.14635,1.063118 -0.14637,0.481152 -0.41213,0.829415 -0.2619,0.34368 -0.62781,0.536141 -0.36205,0.187879 -0.80113,0.187879 -0.43908,0 -0.80498,-0.187879 -0.3659,-0.192461 -0.63166,-0.536141 -0.26191,-0.343681 -0.40827,-0.824833 -0.14636,-0.481152 -0.14636,-1.0677 0,-0.591131 0.14636,-1.067701 0.15021,-0.476571 0.41597,-0.811086 0.26576,-0.339098 0.62781,-0.522394 0.3659,-0.183296 0.80113,-0.183296 z m -0.004,4.834438 q 0.36206,0 0.66633,-0.146638 0.30813,-0.151218 0.53151,-0.43991 0.2234,-0.288692 0.34665,-0.705691 0.12325,-0.421581 0.12325,-0.957722 0,-0.540724 -0.1271,-0.953141 -0.12325,-0.412416 -0.34665,-0.691944 -0.21953,-0.284108 -0.52381,-0.426162 -0.30042,-0.146638 -0.65863,-0.146638 -0.36589,0 -0.67403,0.146638 -0.30427,0.146636 -0.52766,0.430745 -0.22339,0.279527 -0.3505,0.691943 -0.12324,0.412417 -0.12324,0.948559 0,0.536141 0.12324,0.957722 0.12326,0.416999 0.3428,0.705691 0.22339,0.288692 0.52766,0.43991 0.30813,0.146638 0.67018,0.146638 z"
       id="text149"
       aria-label="TAMARA FERNANDEZ VITURRO" />
  </g>
</svg>
